<?xml version="1.0" encoding="utf-8"?>
<!-- Generated by IcoMoon.io -->
<!DOCTYPE svg PUBLIC "-//W3C//DTD SVG 1.1//EN" "http://www.w3.org/Graphics/SVG/1.1/DTD/svg11.dtd">
<svg version="1.1" xmlns="http://www.w3.org/2000/svg" xmlns:xlink="http://www.w3.org/1999/xlink" width="43" height="32" viewBox="0 0 43 32">
<path d="M39.314 0.042h-38.681c-0.349 0-0.633 0.286-0.633 0.64v30.581c0 0.354 0.283 0.64 0.633 0.64h38.681c0.35 0 0.633-0.286 0.633-0.64v-30.581c0-0.354-0.283-0.64-0.633-0.64zM36.149 26.801l-8.705-9.115c-0.096-0.1-0.254-0.107-0.357-0.015l-6.037 5.373-7.717-9.608c-0.050-0.063-0.123-0.099-0.206-0.097-0.080 0.002-0.154 0.040-0.202 0.105l-9.127 12.385v-21.948h32.352v22.919z"></path>
</svg>
