<?xml version="1.0" encoding="utf-8"?>
<!-- Generated by IcoMoon.io -->
<!DOCTYPE svg PUBLIC "-//W3C//DTD SVG 1.1//EN" "http://www.w3.org/Graphics/SVG/1.1/DTD/svg11.dtd">
<svg version="1.1" xmlns="http://www.w3.org/2000/svg" xmlns:xlink="http://www.w3.org/1999/xlink" width="43" height="32" viewBox="0 0 43 32">
<path fill="#a01e72" d="M33.282 5.054l-5.996 9.596 5.847-1.35c1.489 6.451-2.543 12.905-8.994 14.394-1.968 0.454-3.952 0.399-5.772-0.104l-2.189 3.503c2.748 0.967 5.801 1.206 8.861 0.5 8.615-1.989 13.981-10.577 11.992-19.192l5.847-1.35-9.596-5.996zM9.745 18.7c-1.489-6.451 2.543-12.905 8.994-14.394 1.968-0.454 3.952-0.399 5.772 0.104l2.189-3.503c-2.748-0.967-5.801-1.206-8.861-0.5-8.615 1.989-13.981 10.577-11.992 19.192l-5.847 1.35 9.596 5.996 5.996-9.596-5.847 1.35zM23.073 14.698l2.94 0.651-9.686 7.489 3.479-5.861-2.94-0.651 9.686-7.163-3.479 5.535z"></path>
</svg>
